# xmcd
#
# Track frame offsets: 
#        150
#        10714
#        22836
#        33672
#        43622
#        54031
#        63547
#        77538
#        89333
#        102791
#        114622
#        124406
#        135074
#        146241
#        156978
#        167696
#        179184
#        190604
#        201917
#        212881
#        221775
#        233761
#        244311
#        257555
#        269815
#        280695
#        292302
#        303543
#        314762
#
# Disc length: 4351 seconds
#
# Revision: 0
# Processed by: cddbd v1.5.2PL0 Copyright (c) Steve Scherf et al.
# Submitted via: ExactAudioCopyFreeDBPlugin 1.0
#
DISCID=b810fd1d
DTITLE=Sam Cooke - The Complete Solo Singles A's and B's, 1957-62
DYEAR=2016
DGENRE=Soul
TTITLE0=No One (Can Ever Take Your Place)
TTITLE1=Teenage Sonata
TTITLE2=If You Were the Only Girl
TTITLE3=You Understand Me
TTITLE4=I Belong to Your Heart
TTITLE5=Wonderful World
TTITLE6=Along the Navajo Trail
TTITLE7=With You
TTITLE8=I Thank God
TTITLE9=Chain Gang
TTITLE10=I Fall in Love Every Day
TTITLE11=So Glamorous
TTITLE12=Steal Away
TTITLE13=Sad Mood
TTITLE14=Love Me
TTITLE15=That's it, I Quit, I'm Movin' On
TTITLE16=What Do You Say
TTITLE17=Cupid
TTITLE18=Farewell, My Darling
TTITLE19=Feel It
TTITLE20=It's All Right
TTITLE21=Just for You
TTITLE22=Made for Me
TTITLE23=Twistin' the Night Away
TTITLE24=One More Time
TTITLE25=Bring it on Home to Me
TTITLE26=Having a Party
TTITLE27=Somebody Have Mercy
TTITLE28=Nothing Can Change This Love
EXTD=
EXTT0=
EXTT1=
EXTT2=
EXTT3=
EXTT4=
EXTT5=
EXTT6=
EXTT7=
EXTT8=
EXTT9=
EXTT10=
EXTT11=
EXTT12=
EXTT13=
EXTT14=
EXTT15=
EXTT16=
EXTT17=
EXTT18=
EXTT19=
EXTT20=
EXTT21=
EXTT22=
EXTT23=
EXTT24=
EXTT25=
EXTT26=
EXTT27=
EXTT28=
PLAYORDER=
